<svg version="1.2" xmlns="http://www.w3.org/2000/svg" viewBox="0 0 500 682" width="500" height="682">
	<title>diagram_dlc-svg</title>
	<style>
		.s0 { fill: #ffffff;stroke: #000000;stroke-width: 2.2 } 
		.s1 { opacity: .3;fill: #00007f;stroke: #00007f;stroke-opacity: .3;stroke-width: 2.2 } 
		.s2 { fill: none;stroke: #000000;stroke-opacity: .3;stroke-width: 1.6 } 
		.s3 { opacity: .1;fill: #000000;stroke: #000000;stroke-width: 2.2 } 
		.s4 { opacity: .2;fill: #00ff00;stroke: #00ff00;stroke-opacity: .2;stroke-width: 2.2 } 
		.s5 { fill: none;stroke: #000000;stroke-opacity: .3;stroke-width: 4.4 } 
		.s6 { fill: none;stroke: #000000;stroke-width: 4;stroke-dasharray: 16,8 } 
	</style>
	<g id="graph0">
		<path id="Layer" class="s0" d="m0 682v-682h500v682h-500z" />
		<g id="node1">
			<g id="a_node1">
				<g id="Layer">
					<path id="Layer" class="s1" d="m250 552.6c-51.5 0-93.2-17.1-93.2-38.4c0-21.2 41.7-38.3 93.2-38.3c51.5 0 93.2 17.1 93.2 38.3c0 21.3-41.7 38.4-93.2 38.4z" />
					<path id="Model" style="opacity: .6" fill="#00007f" aria-label="Model"  d="m213.08 521v-19.18h3.86l4.9 13.05l4.92-13.05h3.87v19.18h-2.53v-16.85l-4.95 13.16h-2.61l-4.94-13.16v16.85zm28.17-12.73q-1.9 0-3 1.49q-1.11 1.47-1.11 4.06q0 2.58 1.09 4.07q1.11 1.48 3.02 1.48q1.89 0 3-1.49q1.1-1.49 1.1-4.06q0-2.56-1.1-4.05q-1.11-1.5-3-1.5zm0-2.01q3.09 0 4.85 2.01q1.76 2 1.76 5.55q0 3.53-1.76 5.55q-1.76 2-4.85 2q-3.09 0-4.85-2q-1.75-2.02-1.75-5.55q0-3.55 1.75-5.55q1.76-2.01 4.85-2.01zm20 2.53v-7.78h2.36v19.99h-2.36v-2.16q-0.75 1.29-1.89 1.92q-1.13 0.61-2.72 0.61q-2.61 0-4.26-2.08q-1.63-2.08-1.63-5.47q0-3.39 1.63-5.48q1.65-2.08 4.26-2.08q1.59 0 2.72 0.63q1.14 0.62 1.89 1.9zm-8.06 5.03q0 2.61 1.07 4.1q1.08 1.47 2.95 1.47q1.88 0 2.96-1.47q1.08-1.49 1.08-4.1q0-2.61-1.08-4.09q-1.08-1.49-2.96-1.49q-1.87 0-2.95 1.49q-1.07 1.48-1.07 4.09zm27.6-0.61v1.16h-10.87q0.16 2.44 1.47 3.73q1.32 1.27 3.67 1.27q1.36 0 2.64-0.34q1.28-0.33 2.54-1v2.24q-1.27 0.54-2.61 0.82q-1.33 0.28-2.71 0.28q-3.44 0-5.46-2q-2.01-2.01-2.01-5.42q0-3.54 1.91-5.61q1.91-2.08 5.15-2.08q2.9 0 4.59 1.88q1.69 1.86 1.69 5.07zm-10.79-0.68l8.43-0.01q-0.03-1.94-1.09-3.1q-1.06-1.15-2.81-1.15q-1.97 0-3.17 1.11q-1.18 1.12-1.36 3.15zm14.67 8.47v-19.99h2.37v19.99z" />
				</g>
			</g>
		</g>
		<g id="node2">
			<g id="a_node2">
				<g id="Layer">
					<path id="Model.Data" fill="#000000" aria-label="Model.Data"  d="m196.23 656v-15.99h3.22l4.08 10.88l4.11-10.88h3.22v15.99h-2.11v-14.04l-4.12 10.97h-2.18l-4.12-10.97v14.04zm-2.15 1.87h19.86v0.97h-19.86zm25.63-12.49q-1.58 0-2.5 1.24q-0.92 1.24-0.92 3.39q0 2.15 0.91 3.39q0.92 1.23 2.51 1.23q1.58 0 2.5-1.24q0.92-1.24 0.92-3.38q0-2.13-0.92-3.37q-0.92-1.26-2.5-1.26zm0-1.67q2.57 0 4.04 1.67q1.47 1.67 1.47 4.63q0 2.94-1.47 4.62q-1.47 1.67-4.04 1.67q-2.58 0-4.05-1.67q-1.45-1.68-1.45-4.62q0-2.96 1.45-4.63q1.47-1.67 4.05-1.67zm-6.71 14.16h14.09v0.96h-14.09zm23.37-12.04v-6.49h1.97v16.66h-1.97v-1.8q-0.62 1.07-1.57 1.59q-0.94 0.52-2.27 0.52q-2.17 0-3.54-1.74q-1.36-1.73-1.36-4.56q0-2.83 1.36-4.56q1.37-1.73 3.54-1.73q1.33 0 2.27 0.52q0.95 0.51 1.57 1.59zm-6.71 4.18q0 2.18 0.89 3.42q0.9 1.23 2.46 1.23q1.57 0 2.46-1.23q0.9-1.24 0.9-3.42q0-2.17-0.9-3.4q-0.89-1.25-2.46-1.25q-1.56 0-2.46 1.25q-0.89 1.23-0.89 3.4zm-3.24 7.86h14.61v0.96h-14.61zm26.24-8.36v0.97h-9.06q0.13 2.03 1.22 3.1q1.11 1.06 3.07 1.06q1.13 0 2.19-0.28q1.07-0.28 2.12-0.83v1.86q-1.06 0.45-2.17 0.69q-1.12 0.23-2.26 0.23q-2.87 0-4.55-1.67q-1.67-1.67-1.67-4.52q0-2.94 1.58-4.67q1.6-1.73 4.29-1.73q2.42 0 3.83 1.56q1.41 1.56 1.41 4.23zm-8.99-0.57l7.02-0.01q-0.02-1.61-0.91-2.58q-0.88-0.96-2.33-0.96q-1.65 0-2.65 0.93q-0.98 0.93-1.13 2.62zm-3.33 8.93h14.16v0.97h-14.16zm15.55-1.88v-16.66h1.97v16.66zm-2.06 1.88h6.4v0.96h-6.4zm8.44-1.87v-2.72h2.26v2.72zm-2.35 1.87h7.32v0.97h-7.32zm13.9-16.09h-2.61v12.43h2.61q3.31 0 4.84-1.49q1.54-1.5 1.54-4.74q0-3.21-1.54-4.7q-1.53-1.5-4.84-1.5zm-4.78 14.21v-15.98h4.45q4.64 0 6.82 1.93q2.17 1.93 2.17 6.04q0 4.14-2.18 6.07q-2.19 1.94-6.81 1.94zm-2.16 1.88h17.74v0.96h-17.74zm26.37-7.9h-1.96q-2.39 0-3.31 0.54q-0.92 0.55-0.92 1.87q0 1.05 0.68 1.67q0.7 0.61 1.89 0.61q1.64 0 2.62-1.16q1-1.17 1-3.09zm1.97-0.82v6.84h-1.97v-1.82q-0.68 1.1-1.68 1.62q-1.01 0.52-2.47 0.52q-1.84 0-2.93-1.03q-1.08-1.04-1.08-2.78q0-2.02 1.35-3.05q1.36-1.03 4.05-1.03h2.76v-0.19q0-1.36-0.9-2.1q-0.89-0.75-2.51-0.75q-1.03 0-2 0.25q-0.97 0.25-1.87 0.74v-1.82q1.08-0.42 2.1-0.62q1.01-0.22 1.98-0.22q2.6 0 3.88 1.35q1.29 1.35 1.29 4.09zm-11.45 8.72h14.11v0.96h-14.11zm15.47-17.27h1.99v3.41h4.05v1.53h-4.05v6.51q0 1.46 0.39 1.88q0.41 0.42 1.64 0.42h2.02v1.65h-2.02q-2.28 0-3.15-0.85q-0.87-0.85-0.87-3.1v-6.51h-1.44v-1.53h1.44zm-2.03 17.27h9.03v0.96h-9.03zm18.07-7.9h-1.95q-2.39 0-3.31 0.54q-0.92 0.55-0.92 1.87q0 1.05 0.68 1.67q0.7 0.61 1.89 0.61q1.63 0 2.62-1.16q0.99-1.16 0.99-3.09zm1.98-0.82v6.85h-1.98v-1.82q-0.67 1.09-1.68 1.61q-1 0.52-2.46 0.52q-1.84 0-2.93-1.03q-1.08-1.04-1.08-2.77q0-2.03 1.34-3.06q1.36-1.02 4.05-1.02h2.76v-0.2q0-1.36-0.89-2.1q-0.89-0.75-2.51-0.75q-1.03 0-2 0.25q-0.98 0.25-1.88 0.74v-1.82q1.08-0.42 2.1-0.62q1.02-0.22 1.98-0.22q2.61 0 3.89 1.35q1.29 1.35 1.29 4.09zm-11.45 8.72h14.11v0.96h-14.11z" />
				</g>
			</g>
		</g>
		<g id="edge1">
			<path id="Layer" class="s2" d="m250 553c0 25.4 0 58.1 0 78.4" />
		</g>
		<g id="node3">
			<g id="a_node3">
				<g id="Layer">
					<path id="Layer" class="s3" d="m236.8 164.5v76.7h-228v-76.7h228z" />
					<path id="ConfigParamSet" fill="#000000" aria-label="ConfigParamSet"  d="m56.89 191.24v2.29q-1.1-1.02-2.34-1.52q-1.23-0.51-2.62-0.51q-2.74 0-4.2 1.68q-1.45 1.67-1.45 4.84q0 3.16 1.45 4.84q1.46 1.67 4.2 1.67q1.39 0 2.62-0.5q1.24-0.5 2.34-1.52v2.26q-1.14 0.77-2.41 1.16q-1.27 0.38-2.68 0.38q-3.63 0-5.72-2.22q-2.09-2.22-2.09-6.07q0-3.85 2.09-6.07q2.09-2.23 5.72-2.23q1.44 0 2.7 0.39q1.27 0.37 2.39 1.13zm-14.13 16.63h16.08v0.97h-16.08zm22.03-12.49q-1.59 0-2.51 1.24q-0.92 1.24-0.92 3.39q0 2.15 0.91 3.39q0.92 1.23 2.52 1.23q1.57 0 2.49-1.24q0.93-1.24 0.93-3.38q0-2.13-0.93-3.37q-0.92-1.26-2.49-1.26zm0-1.67q2.57 0 4.04 1.67q1.46 1.67 1.46 4.63q0 2.94-1.46 4.62q-1.47 1.67-4.04 1.67q-2.58 0-4.05-1.67q-1.45-1.68-1.45-4.62q0-2.96 1.45-4.63q1.47-1.67 4.05-1.67zm-6.71 14.16h14.08v0.96h-14.08zm25.45-9.11v7.24h-1.97v-7.18q0-1.7-0.67-2.55q-0.66-0.84-1.99-0.84q-1.59 0-2.51 1.02q-0.92 1.01-0.92 2.77v6.78h-1.99v-12h1.99v1.87q0.7-1.08 1.65-1.62q0.97-0.53 2.22-0.53q2.07 0 3.13 1.28q1.06 1.27 1.06 3.76zm-12.04 9.11h14.6v0.96h-14.6zm18.27-13.86h7.39v11.99h-1.98v-10.46h-5.41v10.46h-1.98v-10.46h-1.89v-1.53h1.89v-0.84q0-1.96 0.92-2.89q0.93-0.94 2.85-0.94h1.98v1.64h-1.89q-1.06 0-1.47 0.43q-0.41 0.42-0.41 1.54zm5.41-2.15v-2.5h1.98v2.5zm-9.78 16.01h14.51v0.97h-14.51zm23.77-8.01q0-2.14-0.88-3.32q-0.88-1.18-2.48-1.18q-1.58 0-2.47 1.18q-0.88 1.18-0.88 3.32q0 2.13 0.88 3.31q0.89 1.18 2.47 1.18q1.6 0 2.48-1.18q0.88-1.18 0.88-3.31zm1.97-5.86v10.51q0 3.06-1.36 4.56q-1.36 1.49-4.16 1.49q-1.04 0-1.96-0.15q-0.92-0.16-1.79-0.49v-1.91q0.87 0.47 1.71 0.69q0.85 0.23 1.73 0.23q1.94 0 2.9-1.01q0.96-1.02 0.96-3.06v-0.97q-0.61 1.06-1.56 1.58q-0.95 0.52-2.28 0.52q-2.21 0-3.56-1.68q-1.34-1.68-1.34-4.45q0-2.78 1.34-4.47q1.35-1.68 3.56-1.68q1.33 0 2.28 0.53q0.95 0.52 1.56 1.58v-1.82zm-11.92 13.87h14.61v0.96h-14.61zm20.95-16.08h-2.72v6.01h2.72q1.51 0 2.34-0.79q0.82-0.78 0.82-2.22q0-1.44-0.82-2.22q-0.83-0.78-2.34-0.78zm-4.88 14.21v-15.99h4.88q2.69 0 4.06 1.22q1.38 1.21 1.38 3.56q0 2.36-1.38 3.57q-1.37 1.21-4.06 1.21h-2.72v6.43zm-2.15 1.87h12.85v0.97h-12.85zm21.71-7.91h-1.96q-2.38 0-3.3 0.55q-0.92 0.55-0.92 1.86q0 1.05 0.68 1.67q0.7 0.61 1.89 0.61q1.63 0 2.62-1.15q0.99-1.17 0.99-3.1zm1.97-0.81v6.84h-1.97v-1.82q-0.67 1.09-1.68 1.62q-1 0.51-2.46 0.51q-1.84 0-2.93-1.03q-1.09-1.03-1.09-2.77q0-2.02 1.35-3.05q1.36-1.03 4.05-1.03h2.76v-0.19q0-1.36-0.9-2.1q-0.88-0.75-2.5-0.75q-1.03 0-2 0.25q-0.98 0.24-1.88 0.73v-1.82q1.08-0.41 2.1-0.62q1.02-0.21 1.98-0.21q2.6 0 3.89 1.35q1.28 1.35 1.28 4.09zm-11.44 8.71h14.11v0.97h-14.11zm22.44-14.05l0.01 2.02q-0.33-0.19-0.73-0.27q-0.38-0.1-0.85-0.1q-1.67 0-2.57 1.09q-0.89 1.08-0.89 3.12v6.31h-1.98v-11.99h1.98v1.87q0.62-1.1 1.62-1.62q0.99-0.54 2.42-0.54q0.2 0 0.45 0.04q0.24 0.02 0.54 0.07zm-9 14.05h9.46v0.96h-9.46zm18.49-7.9h-1.96q-2.39 0-3.31 0.55q-0.92 0.54-0.92 1.86q0 1.05 0.68 1.67q0.7 0.61 1.89 0.61q1.64 0 2.62-1.16q1-1.16 1-3.09zm1.97-0.81v6.84h-1.97v-1.82q-0.68 1.09-1.68 1.61q-1.01 0.52-2.47 0.52q-1.84 0-2.93-1.03q-1.08-1.04-1.08-2.77q0-2.03 1.35-3.05q1.36-1.03 4.05-1.03h2.76v-0.2q0-1.36-0.9-2.09q-0.89-0.75-2.51-0.75q-1.02 0-2 0.24q-0.97 0.25-1.87 0.74v-1.82q1.08-0.42 2.1-0.62q1.01-0.21 1.98-0.21q2.6 0 3.88 1.34q1.29 1.35 1.29 4.1zm-11.45 8.71h14.11v0.97h-14.11zm24.84-11.57q0.74-1.33 1.77-1.96q1.03-0.63 2.42-0.63q1.88 0 2.89 1.32q1.02 1.3 1.02 3.72v7.24h-1.98v-7.17q0-1.73-0.61-2.56q-0.61-0.84-1.86-0.84q-1.54 0-2.42 1.02q-0.89 1.02-0.89 2.77v6.78h-1.98v-7.17q0-1.74-0.61-2.56q-0.62-0.84-1.89-0.84q-1.51 0-2.4 1.03q-0.89 1.02-0.89 2.76v6.78h-1.98v-11.99h1.98v1.86q0.68-1.1 1.62-1.63q0.94-0.52 2.24-0.52q1.3 0 2.21 0.66q0.93 0.67 1.36 1.93zm-11.4 11.57h22.43v0.96h-22.43zm33.1-17.34v2.11q-1.23-0.59-2.32-0.88q-1.1-0.28-2.11-0.28q-1.77 0-2.73 0.68q-0.96 0.69-0.96 1.95q0 1.06 0.63 1.61q0.65 0.53 2.42 0.86l1.31 0.27q2.42 0.46 3.57 1.63q1.15 1.15 1.15 3.1q0 2.33-1.56 3.53q-1.55 1.2-4.56 1.2q-1.14 0-2.42-0.26q-1.28-0.26-2.65-0.76v-2.23q1.32 0.74 2.58 1.11q1.27 0.38 2.49 0.38q1.85 0 2.86-0.73q1-0.73 1-2.08q0-1.17-0.72-1.84q-0.72-0.66-2.37-0.99l-1.32-0.26q-2.42-0.48-3.5-1.51q-1.08-1.03-1.08-2.86q0-2.12 1.49-3.34q1.5-1.22 4.12-1.22q1.12 0 2.29 0.2q1.17 0.21 2.39 0.61zm-11.74 17.34h14.62v0.96h-14.62zm26.25-8.36v0.96h-9.06q0.13 2.04 1.22 3.11q1.1 1.06 3.06 1.06q1.14 0 2.2-0.28q1.07-0.28 2.12-0.83v1.86q-1.06 0.45-2.18 0.68q-1.11 0.24-2.26 0.24q-2.87 0-4.55-1.67q-1.67-1.67-1.67-4.52q0-2.94 1.59-4.67q1.59-1.73 4.29-1.73q2.42 0 3.82 1.56q1.42 1.55 1.42 4.23zm-9-0.57l7.03-0.01q-0.02-1.62-0.91-2.58q-0.88-0.96-2.34-0.96q-1.65 0-2.64 0.93q-0.99 0.93-1.14 2.62zm-3.33 8.93h14.17v0.97h-14.17zm15.53-17.28h1.98v3.41h4.06v1.53h-4.06v6.51q0 1.47 0.4 1.89q0.4 0.41 1.64 0.41h2.02v1.65h-2.02q-2.29 0-3.15-0.84q-0.87-0.86-0.87-3.11v-6.51h-1.45v-1.53h1.45zm-2.03 17.27h9.02v0.96h-9.02z" />
				</g>
			</g>
		</g>
		<g id="node4">
			<g id="a_node4">
				<g id="Layer">
					<path id="Layer" class="s4" d="m327.9 320.2v76.7h-155.8v-76.7h155.8z" />
					<path id="Config" fill="#006400" aria-label="Config"  d="m227.47 345.29v2.74q-1.31-1.22-2.8-1.82q-1.47-0.61-3.14-0.61q-3.29 0-5.04 2.02q-1.75 2-1.75 5.81q0 3.79 1.75 5.81q1.75 2 5.04 2q1.67 0 3.14-0.6q1.49-0.61 2.8-1.83v2.71q-1.36 0.93-2.89 1.39q-1.51 0.46-3.21 0.46q-4.35 0-6.86-2.66q-2.51-2.67-2.51-7.28q0-4.63 2.51-7.29q2.51-2.67 6.86-2.67q1.72 0 3.24 0.46q1.53 0.45 2.86 1.36zm-16.94 19.96h19.29v1.16h-19.29zm26.43-14.99q-1.9 0-3.01 1.49q-1.1 1.48-1.1 4.06q0 2.59 1.09 4.08q1.1 1.47 3.02 1.47q1.89 0 2.99-1.49q1.11-1.49 1.11-4.06q0-2.55-1.11-4.04q-1.1-1.51-2.99-1.51zm0-2q3.08 0 4.84 2q1.76 2.01 1.76 5.55q0 3.54-1.76 5.55q-1.76 2.01-4.84 2.01q-3.1 0-4.86-2.01q-1.75-2.01-1.75-5.55q0-3.54 1.75-5.55q1.76-2 4.86-2zm-8.06 16.99h16.91v1.15h-16.91zm30.54-10.93v8.68h-2.36v-8.61q0-2.04-0.8-3.05q-0.79-1.02-2.39-1.02q-1.91 0-3.02 1.22q-1.1 1.22-1.1 3.33v8.13h-2.38v-14.39h2.38v2.24q0.85-1.3 1.99-1.94q1.16-0.65 2.66-0.65q2.48 0 3.75 1.55q1.27 1.53 1.27 4.51zm-14.44 10.93h17.51v1.16h-17.51zm21.92-16.64h8.87v14.39h-2.38v-12.55h-6.49v12.55h-2.37v-12.55h-2.27v-1.84h2.27v-1q0-2.36 1.1-3.47q1.12-1.13 3.42-1.13h2.38v1.96h-2.27q-1.27 0-1.77 0.52q-0.49 0.51-0.49 1.85zm6.49-2.59v-2.99h2.38v2.99zm-11.73 19.23h17.4v1.15h-17.4zm28.52-9.61q0-2.57-1.06-3.98q-1.06-1.42-2.97-1.42q-1.9 0-2.97 1.42q-1.05 1.41-1.05 3.98q0 2.56 1.05 3.97q1.07 1.41 2.97 1.41q1.91 0 2.97-1.41q1.06-1.41 1.06-3.97zm2.37-7.03v12.61q0 3.67-1.63 5.47q-1.64 1.79-5 1.79q-1.25 0-2.35-0.18q-1.11-0.2-2.15-0.58v-2.3q1.04 0.56 2.06 0.83q1.01 0.27 2.06 0.27q2.33 0 3.49-1.2q1.15-1.22 1.15-3.68v-1.17q-0.73 1.27-1.87 1.9q-1.15 0.63-2.74 0.63q-2.65 0-4.27-2.01q-1.61-2.02-1.61-5.35q0-3.34 1.61-5.36q1.62-2.01 4.27-2.01q1.59 0 2.74 0.63q1.14 0.62 1.87 1.9v-2.19zm-14.31 16.64h17.54v1.16h-17.54z" />
				</g>
			</g>
		</g>
		<g id="edge2">
			<path id="Layer" class="s2" d="m153.6 241.7c20 23.8 46 54.6 65.9 78.4" />
		</g>
		<g id="edge3">
			<path id="Layer" class="s5" d="m250 397.4c0 23.8 0 54.6 0 78.4" />
		</g>
		<g id="node5">
			<g id="a_node5">
				<g id="Layer">
					<path id="Layer" class="s4" d="m477 164.5v76.7h-199.6v-76.7h199.6z" />
					<path id="Recording" fill="#006400" aria-label="Recording"  d="m327.47 198.01q0.83 0.28 1.62 1.2q0.8 0.93 1.59 2.55l2.64 5.24h-2.79l-2.46-4.92q-0.95-1.93-1.85-2.56q-0.88-0.63-2.43-0.63h-2.82v8.11h-2.6v-19.18h5.86q3.29 0 4.91 1.37q1.62 1.38 1.62 4.15q0 1.81-0.85 3.01q-0.83 1.19-2.44 1.66zm-3.24-8.06h-3.26v6.81h3.26q1.88 0 2.83-0.86q0.96-0.88 0.96-2.56q0-1.68-0.96-2.53q-0.95-0.86-2.83-0.86zm-8.44 19.3h17.96v1.16h-17.96zm31.89-10.04v1.16h-10.87q0.16 2.44 1.47 3.72q1.32 1.27 3.67 1.27q1.36 0 2.64-0.33q1.28-0.33 2.54-1v2.23q-1.27 0.54-2.61 0.83q-1.34 0.28-2.71 0.28q-3.44 0-5.46-2.01q-2.01-2-2.01-5.42q0-3.53 1.91-5.6q1.91-2.08 5.15-2.08q2.9 0 4.59 1.87q1.69 1.87 1.69 5.08zm-10.79-0.68l8.43-0.01q-0.03-1.94-1.09-3.1q-1.06-1.16-2.81-1.16q-1.97 0-3.17 1.12q-1.18 1.12-1.36 3.15zm-4 10.72h17v1.15h-17zm29.03-16.09v2.21q-1-0.55-2.02-0.82q-1-0.28-2.03-0.28q-2.3 0-3.57 1.46q-1.27 1.46-1.27 4.09q0 2.63 1.27 4.1q1.27 1.45 3.57 1.45q1.03 0 2.03-0.27q1.02-0.28 2.02-0.83v2.18q-0.99 0.46-2.06 0.69q-1.05 0.24-2.25 0.24q-3.25 0-5.16-2.05q-1.92-2.04-1.92-5.51q0-3.52 1.93-5.54q1.94-2.02 5.31-2.02q1.09 0 2.13 0.24q1.04 0.21 2.02 0.66zm-12.84 16.09h15.19v1.16h-15.19zm22.53-14.98q-1.9 0-3.01 1.49q-1.1 1.47-1.1 4.06q0 2.58 1.09 4.07q1.1 1.48 3.02 1.48q1.89 0 2.99-1.49q1.11-1.49 1.11-4.06q0-2.56-1.11-4.05q-1.1-1.5-2.99-1.5zm0-2.01q3.08 0 4.84 2.01q1.76 2 1.76 5.55q0 3.53-1.76 5.55q-1.76 2-4.84 2q-3.1 0-4.86-2q-1.75-2.02-1.75-5.55q0-3.55 1.75-5.55q1.76-2.01 4.86-2.01zm-8.06 16.99h16.91v1.15h-16.91zm26.91-16.85l0.01 2.42q-0.4-0.23-0.87-0.33q-0.47-0.12-1.03-0.12q-2.01 0-3.08 1.32q-1.07 1.29-1.07 3.73v7.59h-2.38v-14.4h2.38v2.24q0.74-1.31 1.94-1.94q1.19-0.64 2.9-0.64q0.25 0 0.54 0.04q0.3 0.02 0.66 0.09zm-10.81 16.85h10.88v1.16h-10.88zm22.31-14.45v-7.79h2.36v19.99h-2.36v-2.16q-0.75 1.29-1.89 1.92q-1.13 0.61-2.72 0.61q-2.61 0-4.26-2.08q-1.63-2.08-1.63-5.47q0-3.39 1.63-5.47q1.65-2.09 4.26-2.09q1.59 0 2.72 0.63q1.14 0.62 1.89 1.91zm-8.06 5.02q0 2.61 1.07 4.1q1.08 1.48 2.95 1.48q1.88 0 2.96-1.48q1.08-1.49 1.08-4.1q0-2.61-1.08-4.09q-1.08-1.49-2.96-1.49q-1.87 0-2.95 1.49q-1.07 1.48-1.07 4.09zm-3.89 9.43h17.54v1.16h-17.54zm19.18-2.25v-14.39h2.37v14.39zm0-17v-2.99h2.36v2.99zm-2.48 19.25h7.68v1.15h-7.68zm21.76-10.93v8.68h-2.37v-8.6q0-2.05-0.8-3.06q-0.79-1.02-2.39-1.02q-1.91 0-3.02 1.22q-1.1 1.22-1.1 3.33v8.13h-2.38v-14.39h2.38v2.24q0.85-1.3 1.99-1.94q1.16-0.64 2.66-0.64q2.48 0 3.75 1.54q1.28 1.53 1.28 4.51zm-14.45 10.93h17.52v1.16h-17.52zm28.63-9.61q0-2.57-1.07-3.98q-1.05-1.42-2.96-1.42q-1.91 0-2.97 1.42q-1.06 1.41-1.06 3.98q0 2.56 1.06 3.97q1.06 1.41 2.97 1.41q1.91 0 2.96-1.41q1.07-1.41 1.07-3.97zm2.37-7.03v12.61q0 3.67-1.64 5.47q-1.63 1.79-4.99 1.79q-1.25 0-2.36-0.18q-1.1-0.2-2.14-0.58v-2.3q1.04 0.56 2.05 0.83q1.02 0.27 2.07 0.27q2.33 0 3.48-1.21q1.16-1.22 1.16-3.67v-1.17q-0.73 1.27-1.87 1.9q-1.15 0.63-2.74 0.63q-2.65 0-4.27-2.02q-1.62-2.01-1.62-5.34q0-3.34 1.62-5.36q1.62-2.02 4.27-2.02q1.59 0 2.74 0.63q1.14 0.63 1.87 1.9v-2.18zm-14.31 16.64h17.54v1.16h-17.54z" />
				</g>
			</g>
		</g>
		<g id="edge4">
			<path id="Layer" class="s2" d="m346.4 241.7c-20 23.8-46 54.6-65.9 78.4" />
		</g>
		<g id="node6">
			<g id="a_node6">
				<g id="Layer">
					<path id="Layer" class="s4" d="m491.2 8.8v76.7h-228v-76.7h228z" />
					<path id="Session" fill="#006400" aria-label="Session"  d="m343.03 33.45v2.53q-1.48-0.71-2.79-1.06q-1.31-0.34-2.53-0.34q-2.12 0-3.28 0.82q-1.14 0.82-1.14 2.34q0 1.27 0.76 1.92q0.77 0.65 2.9 1.05l1.57 0.32q2.9 0.55 4.28 1.95q1.39 1.39 1.39 3.73q0 2.78-1.88 4.22q-1.86 1.44-5.47 1.44q-1.37 0-2.91-0.31q-1.53-0.3-3.17-0.91v-2.67q1.58 0.89 3.1 1.34q1.51 0.45 2.98 0.45q2.22 0 3.43-0.88q1.21-0.87 1.21-2.49q0-1.41-0.88-2.21q-0.86-0.8-2.84-1.2l-1.58-0.3q-2.9-0.58-4.2-1.82q-1.3-1.23-1.3-3.43q0-2.54 1.79-4.01q1.8-1.46 4.95-1.46q1.34 0 2.74 0.24q1.41 0.25 2.87 0.74zm-14.08 20.8h17.54v1.16h-17.54zm31.49-10.04v1.16h-10.87q0.16 2.44 1.47 3.72q1.32 1.27 3.67 1.27q1.36 0 2.63-0.33q1.29-0.33 2.55-1v2.23q-1.27 0.54-2.61 0.83q-1.34 0.28-2.71 0.28q-3.44 0-5.46-2.01q-2.01-2-2.01-5.42q0-3.53 1.91-5.6q1.91-2.08 5.15-2.08q2.9 0 4.59 1.87q1.69 1.87 1.69 5.08zm-10.79-0.68l8.43-0.01q-0.03-1.94-1.1-3.1q-1.05-1.16-2.8-1.16q-1.98 0-3.17 1.12q-1.18 1.12-1.36 3.15zm-4 10.72h17v1.15h-17zm27.85-16.21v2.23q-1.01-0.51-2.09-0.77q-1.07-0.26-2.23-0.26q-1.76 0-2.65 0.54q-0.87 0.54-0.87 1.62q0 0.82 0.63 1.3q0.63 0.46 2.53 0.89l0.81 0.18q2.52 0.54 3.57 1.53q1.07 0.97 1.07 2.73q0 2.01-1.6 3.18q-1.58 1.17-4.35 1.17q-1.16 0-2.42-0.22q-1.24-0.23-2.63-0.68v-2.45q1.31 0.69 2.58 1.03q1.27 0.34 2.52 0.34q1.67 0 2.57-0.57q0.9-0.58 0.9-1.62q0-0.96-0.66-1.48q-0.64-0.51-2.84-0.98l-0.82-0.2q-2.2-0.46-3.17-1.41q-0.98-0.96-0.98-2.63q0-2.04 1.44-3.14q1.44-1.11 4.09-1.11q1.31 0 2.46 0.2q1.16 0.19 2.14 0.58zm-11.66 16.21h14.4v1.16h-14.4zm25.37-16.22v2.24q-1.01-0.52-2.08-0.77q-1.08-0.26-2.24-0.26q-1.76 0-2.65 0.54q-0.87 0.54-0.87 1.62q0 0.82 0.63 1.3q0.63 0.46 2.53 0.88l0.81 0.18q2.52 0.54 3.57 1.53q1.07 0.98 1.07 2.74q0 2-1.6 3.17q-1.58 1.17-4.35 1.17q-1.16 0-2.42-0.22q-1.24-0.23-2.63-0.68v-2.44q1.31 0.68 2.58 1.03q1.27 0.33 2.52 0.33q1.67 0 2.57-0.56q0.9-0.58 0.9-1.62q0-0.96-0.66-1.48q-0.64-0.51-2.84-0.99l-0.82-0.19q-2.2-0.46-3.17-1.41q-0.98-0.97-0.98-2.64q0-2.03 1.44-3.13q1.44-1.11 4.09-1.11q1.31 0 2.46 0.19q1.16 0.2 2.14 0.58zm-11.66 16.22h14.4v1.15h-14.4zm16.19-2.24v-14.4h2.37v14.4zm0-17v-3h2.36v3zm-2.48 19.24h7.68v1.16h-7.68zm15.37-14.98q-1.9 0-3.01 1.49q-1.1 1.48-1.1 4.06q0 2.58 1.09 4.07q1.11 1.48 3.02 1.48q1.89 0 2.99-1.49q1.11-1.49 1.11-4.06q0-2.56-1.11-4.05q-1.1-1.5-2.99-1.5zm0-2.01q3.08 0 4.84 2.01q1.76 2 1.76 5.55q0 3.53-1.76 5.55q-1.76 2-4.84 2q-3.1 0-4.86-2q-1.75-2.02-1.75-5.55q0-3.55 1.75-5.55q1.76-2.01 4.86-2.01zm-8.06 16.99h16.91v1.16h-16.91zm30.55-10.94v8.69h-2.37v-8.61q0-2.04-0.79-3.06q-0.8-1.01-2.39-1.01q-1.92 0-3.02 1.22q-1.11 1.22-1.11 3.33v8.13h-2.38v-14.39h2.38v2.23q0.85-1.29 1.99-1.94q1.16-0.64 2.66-0.64q2.48 0 3.75 1.54q1.28 1.53 1.28 4.51zm-14.45 10.94h17.52v1.15h-17.52z" />
				</g>
			</g>
		</g>
		<g id="edge5">
			<path id="Layer" class="s2" d="m377.2 86c0 23.8 0 54.6 0 78.4" />
		</g>
		<path id="Shape 1" class="s6" d="m486 122h-466" />
		<path id="UPSTREAM" fill="#000000" aria-label="UPSTREAM"  d="m47.06 50.23v-14.56h2.86v14.17q0 3.75 1.22 5.41q1.23 1.64 3.97 1.64q2.73 0 3.95-1.64q1.22-1.66 1.22-5.41v-14.17h2.86v14.56q0 4.57-2.03 6.9q-2.04 2.32-6 2.32q-3.99 0-6.02-2.32q-2.03-2.33-2.03-6.9zm27.81-11.96h-3.56v8.76h3.56q1.99 0 3.06-1.14q1.1-1.14 1.1-3.25q0-2.09-1.1-3.23q-1.07-1.14-3.06-1.14zm-6.41 20.73v-23.33h6.41q3.53 0 5.33 1.78q1.81 1.77 1.81 5.19q0 3.45-1.81 5.22q-1.8 1.77-5.33 1.77h-3.56v9.37zm29.94-22.56v3.08q-1.61-0.86-3.05-1.29q-1.44-0.42-2.77-0.42q-2.32 0-3.59 1q-1.25 1-1.25 2.85q0 1.54 0.83 2.34q0.84 0.78 3.19 1.27l1.7 0.39q3.19 0.67 4.69 2.37q1.51 1.69 1.51 4.53q0 3.39-2.05 5.14q-2.03 1.75-5.98 1.75q-1.5 0-3.19-0.37q-1.67-0.38-3.47-1.11v-3.25q1.74 1.08 3.39 1.62q1.66 0.55 3.27 0.55q2.42 0 3.75-1.06q1.33-1.06 1.33-3.03q0-1.72-0.95-2.69q-0.96-0.97-3.13-1.45l-1.72-0.38q-3.19-0.7-4.61-2.2q-1.4-1.5-1.4-4.17q0-3.1 1.95-4.88q1.97-1.78 5.41-1.78q1.48 0 3.01 0.3q1.53 0.29 3.13 0.89zm2.79 1.89v-2.66h17.75v2.66h-7.45v20.67h-2.84v-20.67zm30.43 9.73q0.93 0.35 1.78 1.47q0.86 1.13 1.74 3.1l2.89 6.37h-3.06l-2.69-5.98q-1.03-2.35-2.02-3.11q-0.96-0.77-2.65-0.77h-3.1v9.86h-2.84v-23.33h6.41q3.61 0 5.37 1.67q1.77 1.68 1.77 5.05q0 2.2-0.92 3.66q-0.91 1.45-2.68 2.01zm-3.54-9.79h-3.57v8.28h3.57q2.06 0 3.11-1.05q1.04-1.06 1.04-3.11q0-2.05-1.04-3.08q-1.05-1.04-3.11-1.04zm13.59 20.73v-23.33h13.27v2.66h-10.43v6.9h10v2.66h-10v8.45h10.69v2.66zm29.08-8.61l-3.88-11.61l-3.85 11.61zm-13.5 8.61l8.01-23.33h3.24l8 23.33h-2.96l-1.92-5.98h-9.47l-1.9 5.98zm22.29 0v-23.33h4.24l5.36 15.88l5.37-15.88h4.24v23.33h-2.77v-20.48l-5.42 16h-2.85l-5.42-16v20.48z" />
	</g>
</svg>