<?xml version="1.0" encoding="UTF-8" standalone="no"?>
<!DOCTYPE svg PUBLIC "-//W3C//DTD SVG 1.1//EN"
 "http://www.w3.org/Graphics/SVG/1.1/DTD/svg11.dtd">
<!-- Generated by graphviz version 2.50.0 (20211204.2007)
 -->
<!-- Pages: 1 -->
<svg width="452pt" height="185pt"
 viewBox="0.00 0.00 452.00 185.00" xmlns="http://www.w3.org/2000/svg" xmlns:xlink="http://www.w3.org/1999/xlink">
<g id="graph0" class="graph" transform="scale(1 1) rotate(0) translate(4 181)">
<polygon fill="white" stroke="transparent" points="-4,4 -4,-181 448,-181 448,4 -4,4"/>
<!-- session.SessionNote -->
<g id="node1" class="node">
<title>session.SessionNote</title>
<g id="a_node1"><a xlink:title="→ session.Session&#13;&#45;&#45;&#45;&#45;&#45;&#45;&#45;&#45;&#45;&#45;&#45;&#45;&#45;&#45;&#45;&#45;&#45;&#45;&#45;&#45;&#45;&#45;&#45;&#45;&#45;&#45;&#45;&#45;&#45;&#45;&#13;session_note &#160;&#160;&#160;&#160;&#160;&#160;&#160;&#160;&#13;">
<polygon fill="#00ff00" fill-opacity="0.188235" stroke="#00ff00" stroke-opacity="0.188235" points="130,-106 0,-106 0,-71 130,-71 130,-106"/>
<text text-anchor="middle" x="65" y="-85.4" font-family="arial" font-size="12.00" fill="darkgreen">session.SessionNote</text>
</a>
</g>
</g>
<!-- session.SessionDirectory -->
<g id="node2" class="node">
<title>session.SessionDirectory</title>
<g id="a_node2"><a xlink:title="→ session.Session&#13;&#45;&#45;&#45;&#45;&#45;&#45;&#45;&#45;&#45;&#45;&#45;&#45;&#45;&#45;&#45;&#45;&#45;&#45;&#45;&#45;&#45;&#45;&#45;&#45;&#45;&#45;&#45;&#45;&#45;&#45;&#13;session_dir &#160;&#160;&#160;&#160;&#160;&#160;&#160;&#160;&#160;&#13;">
<polygon fill="#00ff00" fill-opacity="0.188235" stroke="#00ff00" stroke-opacity="0.188235" points="234,-35 82,-35 82,0 234,0 234,-35"/>
<text text-anchor="middle" x="158" y="-14.4" font-family="arial" font-size="12.00" fill="darkgreen">session.SessionDirectory</text>
</a>
</g>
</g>
<!-- session.Session -->
<g id="node3" class="node">
<title>session.Session</title>
<g id="a_node3"><a xlink:title="→ subject.Subject&#13;session_datetime &#160;&#160;&#160;&#160;&#13;">
<polygon fill="#00ff00" fill-opacity="0.188235" stroke="#00ff00" stroke-opacity="0.188235" points="259,-177 155,-177 155,-142 259,-142 259,-177"/>
<text text-anchor="start" x="163" y="-157.4" font-family="arial" text-decoration="underline" font-size="12.00" fill="darkgreen">session.Session</text>
</a>
</g>
</g>
<!-- session.Session&#45;&gt;session.SessionNote -->
<g id="edge1" class="edge">
<title>session.Session&#45;&gt;session.SessionNote</title>
<path fill="none" stroke="#000000" stroke-width="2" stroke-opacity="0.250980" d="M172.99,-141.97C150.67,-131.13 121.59,-117 99.23,-106.13"/>
</g>
<!-- session.Session&#45;&gt;session.SessionDirectory -->
<g id="edge2" class="edge">
<title>session.Session&#45;&gt;session.SessionDirectory</title>
<path fill="none" stroke="#000000" stroke-width="2" stroke-opacity="0.250980" d="M195.61,-141.66C189.31,-131.67 181.81,-118.54 177,-106 167.86,-82.2 162.64,-52.98 160.06,-35.06"/>
</g>
<!-- session.ProjectSession -->
<g id="node4" class="node">
<title>session.ProjectSession</title>
<g id="a_node4"><a xlink:title="→ lab.Project&#13;→ session.Session&#13;">
<polygon fill="#00ff00" fill-opacity="0.188235" stroke="#00ff00" stroke-opacity="0.188235" points="328,-106 186,-106 186,-71 328,-71 328,-106"/>
<text text-anchor="middle" x="257" y="-85.4" font-family="arial" font-size="12.00" fill="darkgreen">session.ProjectSession</text>
</a>
</g>
</g>
<!-- session.Session&#45;&gt;session.ProjectSession -->
<g id="edge3" class="edge">
<title>session.Session&#45;&gt;session.ProjectSession</title>
<path fill="none" stroke="#000000" stroke-width="0.75" stroke-opacity="0.250980" d="M219.1,-141.8C226.96,-130.95 237.17,-116.87 245.01,-106.05"/>
</g>
<!-- session.SessionExperimenter -->
<g id="node5" class="node">
<title>session.SessionExperimenter</title>
<g id="a_node5"><a xlink:title="→ session.Session&#13;→ lab.User&#13;">
<polygon fill="#00ff00" fill-opacity="0.188235" stroke="#00ff00" stroke-opacity="0.188235" points="444,-35 268,-35 268,0 444,0 444,-35"/>
<text text-anchor="middle" x="356" y="-14.4" font-family="arial" font-size="12.00" fill="darkgreen">session.SessionExperimenter</text>
</a>
</g>
</g>
<!-- session.Session&#45;&gt;session.SessionExperimenter -->
<g id="edge4" class="edge">
<title>session.Session&#45;&gt;session.SessionExperimenter</title>
<path fill="none" stroke="#000000" stroke-width="0.75" stroke-opacity="0.250980" d="M259.2,-149.51C286.19,-142.22 317.47,-129.17 337,-106 353.83,-86.03 356.75,-54.59 356.78,-35.33"/>
</g>
</g>
</svg>
